<svg viewBox="0 0 100 100" fill="none" xmlns="http://www.w3.org/2000/svg">
  <defs>
    <linearGradient id="gearGradient" x1="0%" y1="0%" x2="100%" y2="100%">
      <stop offset="0%" stop-color="#e91e63" />
      <stop offset="100%" stop-color="#3f51b5" />
    </linearGradient>
  </defs>
  <path d="M50 5 L55 15 L60 5 L65 18 L72 10 L72 22 L82 18 L78 28 L90 28 L82 38 L95 42 L85 48 L95 55 L82 58 L90 68 L78 68 L82 78 L72 75 L72 87 L65 80 L60 92 L55 82 L50 95 L45 82 L40 92 L35 80 L28 87 L28 75 L18 78 L22 68 L10 68 L18 58 L5 55 L15 48 L5 42 L18 38 L10 28 L22 28 L18 18 L28 22 L28 10 L35 18 L40 5 L45 15 L50 5Z" fill="url(#gearGradient)"/>
  <circle cx="50" cy="50" r="25" fill="#0a0a12"/>
  <circle cx="50" cy="50" r="8" fill="url(#gearGradient)"/>
</svg>
